<svg xmlns="http://www.w3.org/2000/svg" xmlns:xlink="http://www.w3.org/1999/xlink" width="21.472" height="21.472" viewBox="0 0 21.472 21.472">
  <defs>
    <clipPath id="clip-path"/>
    <filter id="__TEMP__SVG__">
      <feOffset dx="1" dy="-1" input="SourceAlpha"/>
      <feGaussianBlur result="blur"/>
      <feFlood result="color"/>
      <feComposite operator="out" in="SourceGraphic" in2="blur"/>
      <feComposite operator="in" in="color"/>
      <feComposite operator="in" in2="SourceGraphic"/>
    </filter>
  </defs>
  <g id="Mask_Group_4" data-name="Mask Group 4" transform="translate(-4 -4.227)" clip-path="url(#clip-path)">
    <g id="Group_2" data-name="Group 2" transform="translate(4 4.227)">
      <g data-type="innerShadowGroup">
        <path id="__TEMP__SVG__2" data-name="__TEMP__SVG__" d="M13.173,2.438c-2.916,0-3.281.013-4.426.064A7.9,7.9,0,0,0,6.142,3,5.487,5.487,0,0,0,3,6.142a7.916,7.916,0,0,0-.5,2.606c-.052,1.145-.064,1.51-.064,4.426S2.45,16.455,2.5,17.6A7.9,7.9,0,0,0,3,20.206a5.485,5.485,0,0,0,3.14,3.141,7.915,7.915,0,0,0,2.606.5c1.145.052,1.511.064,4.426.064s3.281-.013,4.426-.064a7.9,7.9,0,0,0,2.606-.5,5.485,5.485,0,0,0,3.14-3.141,7.916,7.916,0,0,0,.5-2.606c.052-1.145.064-1.511.064-4.426s-.013-3.281-.064-4.426a7.9,7.9,0,0,0-.5-2.606A5.485,5.485,0,0,0,20.206,3,7.915,7.915,0,0,0,17.6,2.5c-1.146-.051-1.511-.064-4.427-.064m0,1.935c2.866,0,3.206.011,4.337.062a5.964,5.964,0,0,1,1.995.369,3.554,3.554,0,0,1,2.038,2.038,5.958,5.958,0,0,1,.369,1.993c.052,1.133.062,1.471.062,4.339s-.011,3.206-.062,4.337a6,6,0,0,1-.369,1.995,3.554,3.554,0,0,1-2.038,2.038,5.958,5.958,0,0,1-1.993.369c-1.132.052-1.471.062-4.339.062s-3.207-.011-4.337-.062a6,6,0,0,1-1.995-.369A3.554,3.554,0,0,1,4.8,19.506a5.921,5.921,0,0,1-.369-1.993c-.052-1.133-.062-1.471-.062-4.339s.011-3.206.062-4.337A5.965,5.965,0,0,1,4.8,6.842,3.554,3.554,0,0,1,6.842,4.8a5.92,5.92,0,0,1,1.993-.369c1.133-.052,1.471-.062,4.339-.062m0,12.38a3.578,3.578,0,1,1,3.578-3.578,3.578,3.578,0,0,1-3.578,3.578m0-9.091a5.513,5.513,0,1,0,5.513,5.513,5.513,5.513,0,0,0-5.513-5.513m7.019-.218A1.288,1.288,0,1,1,18.9,6.156a1.288,1.288,0,0,1,1.288,1.288" transform="translate(-2.438 -2.438)" fill="#1d1d1d"/>
        <g transform="matrix(1, 0, 0, 1, 0, 0)" filter="url(#__TEMP__SVG__)">
          <path id="__TEMP__SVG__3" data-name="__TEMP__SVG__" d="M13.173,2.438c-2.916,0-3.281.013-4.426.064A7.9,7.9,0,0,0,6.142,3,5.487,5.487,0,0,0,3,6.142a7.916,7.916,0,0,0-.5,2.606c-.052,1.145-.064,1.51-.064,4.426S2.45,16.455,2.5,17.6A7.9,7.9,0,0,0,3,20.206a5.485,5.485,0,0,0,3.14,3.141,7.915,7.915,0,0,0,2.606.5c1.145.052,1.511.064,4.426.064s3.281-.013,4.426-.064a7.9,7.9,0,0,0,2.606-.5,5.485,5.485,0,0,0,3.14-3.141,7.916,7.916,0,0,0,.5-2.606c.052-1.145.064-1.511.064-4.426s-.013-3.281-.064-4.426a7.9,7.9,0,0,0-.5-2.606A5.485,5.485,0,0,0,20.206,3,7.915,7.915,0,0,0,17.6,2.5c-1.146-.051-1.511-.064-4.427-.064m0,1.935c2.866,0,3.206.011,4.337.062a5.964,5.964,0,0,1,1.995.369,3.554,3.554,0,0,1,2.038,2.038,5.958,5.958,0,0,1,.369,1.993c.052,1.133.062,1.471.062,4.339s-.011,3.206-.062,4.337a6,6,0,0,1-.369,1.995,3.554,3.554,0,0,1-2.038,2.038,5.958,5.958,0,0,1-1.993.369c-1.132.052-1.471.062-4.339.062s-3.207-.011-4.337-.062a6,6,0,0,1-1.995-.369A3.554,3.554,0,0,1,4.8,19.506a5.921,5.921,0,0,1-.369-1.993c-.052-1.133-.062-1.471-.062-4.339s.011-3.206.062-4.337A5.965,5.965,0,0,1,4.8,6.842,3.554,3.554,0,0,1,6.842,4.8a5.92,5.92,0,0,1,1.993-.369c1.133-.052,1.471-.062,4.339-.062m0,12.38a3.578,3.578,0,1,1,3.578-3.578,3.578,3.578,0,0,1-3.578,3.578m0-9.091a5.513,5.513,0,1,0,5.513,5.513,5.513,5.513,0,0,0-5.513-5.513m7.019-.218A1.288,1.288,0,1,1,18.9,6.156a1.288,1.288,0,0,1,1.288,1.288" transform="translate(-2.44 -2.44)" fill="#fff"/>
        </g>
      </g>
    </g>
  </g>
</svg>
