<svg xmlns="http://www.w3.org/2000/svg" xmlns:xlink="http://www.w3.org/1999/xlink" width="21.023" height="21.124" viewBox="0 0 21.023 21.124">
  <defs>
    <clipPath id="clip-path"/>
    <filter id="__TEMP__SVG__">
      <feOffset dx="1" dy="-1" input="SourceAlpha"/>
      <feGaussianBlur result="blur"/>
      <feFlood result="color"/>
      <feComposite operator="out" in="SourceGraphic" in2="blur"/>
      <feComposite operator="in" in="color"/>
      <feComposite operator="in" in2="SourceGraphic"/>
    </filter>
  </defs>
  <g id="Mask_Group_3" data-name="Mask Group 3" transform="translate(-4 -4.227)" clip-path="url(#clip-path)">
    <g id="Group_3" data-name="Group 3" transform="translate(4 4.227)">
      <g data-type="innerShadowGroup">
        <path id="__TEMP__SVG__2" data-name="__TEMP__SVG__" d="M15.386,12.658c-.262-.131-1.547-.763-1.787-.851s-.414-.13-.59.132-.675.85-.827,1.025-.305.2-.567.066a7.184,7.184,0,0,1-2.1-1.3A7.84,7.84,0,0,1,8.057,9.919c-.152-.262-.016-.4.114-.533s.262-.305.393-.458a1.81,1.81,0,0,0,.262-.438A.478.478,0,0,0,8.8,8.032C8.738,7.9,8.215,6.614,8,6.09s-.428-.44-.589-.449-.334-.01-.5-.009a.958.958,0,0,0-.7.327,2.934,2.934,0,0,0-.915,2.182,5.09,5.09,0,0,0,1.068,2.706,11.667,11.667,0,0,0,4.468,3.95,14.773,14.773,0,0,0,1.491.55,3.567,3.567,0,0,0,1.646.1,2.7,2.7,0,0,0,1.766-1.243,2.171,2.171,0,0,0,.152-1.243c-.065-.109-.239-.174-.5-.305m-4.772,6.516h0a8.688,8.688,0,0,1-4.428-1.213l-.317-.188-3.293.864.878-3.211L3.243,15.1a8.7,8.7,0,1,1,7.37,4.077m7.405-16.1A10.469,10.469,0,0,0,1.543,15.7L.058,21.124l5.549-1.456a10.458,10.458,0,0,0,5,1.274h0A10.472,10.472,0,0,0,18.018,3.069Z" transform="translate(-0.058 0)" fill="#1d1d1d"/>
        <g transform="matrix(1, 0, 0, 1, 0, 0)" filter="url(#__TEMP__SVG__)">
          <path id="__TEMP__SVG__3" data-name="__TEMP__SVG__" d="M15.386,12.658c-.262-.131-1.547-.763-1.787-.851s-.414-.13-.59.132-.675.85-.827,1.025-.305.2-.567.066a7.184,7.184,0,0,1-2.1-1.3A7.84,7.84,0,0,1,8.057,9.919c-.152-.262-.016-.4.114-.533s.262-.305.393-.458a1.81,1.81,0,0,0,.262-.438A.478.478,0,0,0,8.8,8.032C8.738,7.9,8.215,6.614,8,6.09s-.428-.44-.589-.449-.334-.01-.5-.009a.958.958,0,0,0-.7.327,2.934,2.934,0,0,0-.915,2.182,5.09,5.09,0,0,0,1.068,2.706,11.667,11.667,0,0,0,4.468,3.95,14.773,14.773,0,0,0,1.491.55,3.567,3.567,0,0,0,1.646.1,2.7,2.7,0,0,0,1.766-1.243,2.171,2.171,0,0,0,.152-1.243c-.065-.109-.239-.174-.5-.305m-4.772,6.516h0a8.688,8.688,0,0,1-4.428-1.213l-.317-.188-3.293.864.878-3.211L3.243,15.1a8.7,8.7,0,1,1,7.37,4.077m7.405-16.1A10.469,10.469,0,0,0,1.543,15.7L.058,21.124l5.549-1.456a10.458,10.458,0,0,0,5,1.274h0A10.472,10.472,0,0,0,18.018,3.069Z" transform="translate(-0.06 0)" fill="#fff"/>
        </g>
      </g>
    </g>
  </g>
</svg>
